<svg width="100" height="100" viewBox="0 0 100 100" fill="none" xmlns="http://www.w3.org/2000/svg">
<path d="M3.33339 86.9705C1.34281 87.6744 0.00881556 89.5531 6.32514e-05 91.6649V96.6659C6.32514e-05 98.5073 1.49245 100 3.33339 100H96.6666C98.5076 100 99.9999 98.5073 99.9999 96.6659V91.6649C99.9912 89.5531 98.6572 87.6744 96.6666 86.9705V26.3491C97.3633 26.1123 97.9955 25.7169 98.5133 25.1939C99.4699 24.2638 100.007 22.9842 99.9999 21.6498C99.9999 18.8878 97.7614 16.6487 94.9999 16.6487H76.6666V9.98063C76.6666 7.21861 74.4281 4.97955 71.6666 4.97955H49.9517C49.705 4.69449 49.4517 4.41276 49.175 4.14604C44.5 -0.554976 37.6833 -1.38182 33.9834 2.30064C33.2313 3.06302 32.6491 3.976 32.275 4.97955H28.3334C25.5719 4.97955 23.3334 7.21861 23.3334 9.98063V16.6487H5.00006C3.67992 16.638 2.41199 17.1638 1.48673 18.1057C0.530065 19.0358 -0.00670564 20.3154 6.32514e-05 21.6498C0.00881556 23.7616 1.34281 25.6402 3.33339 26.3441V86.9705ZM3.33339 91.6649C3.33339 90.7442 4.07958 89.9978 5.00006 89.9978H31.6667V96.6659H3.33339V91.6649ZM35 96.6659V89.9978H65V96.6659H35ZM60 86.6638H40V58.3244C40 56.483 41.4924 54.9903 43.3333 54.9903H56.6667C58.5076 54.9903 60 56.483 60 58.3244V86.6638ZM68.3333 96.6659V89.9978H94.9999C95.9204 89.9978 96.6666 90.7442 96.6666 91.6649V96.6659H68.3333ZM93.3333 86.6638H63.3333V58.3244C63.3333 54.6417 60.3486 51.6563 56.6667 51.6563H43.3333C39.6515 51.6563 36.6667 54.6417 36.6667 58.3244V86.6638H6.66672V26.6509H23.1367L18.5084 35.9079C18.4984 35.9279 18.4967 35.9495 18.4867 35.9696C18.4767 35.9896 18.4634 36.0429 18.4484 36.0796C18.389 36.2401 18.3547 36.4087 18.3467 36.5797C18.3467 36.603 18.3334 36.6214 18.3334 36.6447V41.6458C18.321 44.4264 20.0423 46.9202 22.6462 47.8943C25.2501 48.8683 28.185 48.1163 30 46.01C31.2498 47.4722 33.0768 48.314 35 48.314C36.9233 48.314 38.7502 47.4722 40 46.01C41.2498 47.4722 43.0768 48.314 45 48.314C46.9233 48.314 48.7502 47.4722 50 46.01C51.2498 47.4722 53.0767 48.314 55 48.314C56.9232 48.314 58.7502 47.4722 60 46.01C61.2498 47.4722 63.0767 48.314 65 48.314C66.9232 48.314 68.7502 47.4722 70 46.01C71.814 48.1152 74.7468 48.8676 77.3499 47.8957C79.9529 46.9238 81.6754 44.4332 81.6666 41.6541V36.653C81.6666 36.6297 81.655 36.6114 81.6533 36.588C81.6453 36.4171 81.611 36.2484 81.5516 36.0879C81.5366 36.0512 81.5283 36.0129 81.5133 35.9779C81.4983 35.9429 81.5016 35.9362 81.4916 35.9162L76.8633 26.6509H93.3333V86.6638ZM73.97 28.3179L77.3033 34.986H22.6967L26.03 28.3179H73.97ZM68.3333 41.6541C68.3333 43.4955 66.8409 44.9882 65 44.9882C63.159 44.9882 61.6667 43.4955 61.6667 41.6541V38.3201H68.3333V41.6541ZM58.3333 41.6541C58.3333 43.4955 56.8409 44.9882 55 44.9882C53.159 44.9882 51.6667 43.4955 51.6667 41.6541V38.3201H58.3333V41.6541ZM48.3333 41.6541C48.3333 43.4955 46.841 44.9882 45 44.9882C43.1591 44.9882 41.6667 43.4955 41.6667 41.6541V38.3201H48.3333V41.6541ZM38.3334 41.6541C38.3334 43.4955 36.841 44.9882 35 44.9882C33.1591 44.9882 31.6667 43.4955 31.6667 41.6541V38.3201H38.3334V41.6541ZM28.3334 41.6541C28.3334 43.4955 26.841 44.9882 25 44.9882C23.1591 44.9882 21.6667 43.4955 21.6667 41.6541V38.3201H28.3334V41.6541ZM71.6666 38.3201H78.3333V41.6541C78.3333 43.4955 76.8409 44.9882 75 44.9882C73.159 44.9882 71.6666 43.4955 71.6666 41.6541V38.3201ZM94.9999 19.9828C95.9204 19.9828 96.6666 20.7291 96.6666 21.6498C96.6677 22.0994 96.4832 22.5295 96.1566 22.8384C95.8515 23.1475 95.4343 23.3201 94.9999 23.3168H76.6666V19.9828H94.9999ZM35.125 7.00498C35.8465 7.29927 36.6055 7.49171 37.38 7.57677C39.2677 7.64878 40.7807 9.16429 40.85 11.0525C40.9686 12.6835 41.68 14.2146 42.85 15.3568C43.989 16.5263 45.517 17.238 47.145 17.3572C47.4433 17.3989 47.7033 17.4456 47.9517 17.5022C45.425 19.1693 41.2683 18.2357 38.185 15.1384C35.8969 13.0907 34.7543 10.0535 35.125 7.00498ZM46.8183 6.50488C49.1026 8.55149 50.2438 11.5848 49.875 14.63C49.1535 14.3357 48.3945 14.1432 47.62 14.0582C45.7298 13.9859 44.2159 12.4666 44.15 10.5758C44.0314 8.9448 43.32 7.4137 42.15 6.27149C41.011 5.10195 39.483 4.3903 37.855 4.27106C37.5434 4.22772 37.2733 4.17771 37.0217 4.1177C37.8918 3.55566 38.9094 3.26549 39.945 3.28418C42.5655 3.42584 45.0292 4.57786 46.8183 6.49821V6.50488ZM26.6667 9.98063C26.6667 9.05995 27.4129 8.3136 28.3334 8.3136H31.6934C31.8305 11.7902 33.3125 15.0776 35.8267 17.4822C38.25 20.0223 41.5734 21.5092 45.0817 21.6231C47.2881 21.6799 49.4254 20.8508 51.0167 19.321C53.6983 16.6287 53.9733 12.2795 52.1167 8.30693H71.6666C72.5871 8.30693 73.3333 9.05328 73.3333 9.97396V24.9772H26.6667V9.98063ZM3.84339 20.4612C4.14854 20.1521 4.56573 19.9795 5.00006 19.9828H23.3334V23.3168H5.00006C4.07958 23.3168 3.33339 22.5705 3.33339 21.6498C3.33227 21.2002 3.51682 20.7701 3.84339 20.4612Z" fill="#161616"/>
</svg>
