<svg width="26" height="26" viewBox="0 0 26 26" fill="none" xmlns="http://www.w3.org/2000/svg">
<g filter="url(#filter0_d)">
<path d="M15.388 6.82261C16.3232 7.00472 17.1827 7.46123 17.8565 8.1337C18.5302 8.80617 18.9876 9.66402 19.1701 10.5974L15.388 6.82261ZM15.388 3C17.331 3.21544 19.1429 4.08388 20.5261 5.46272C21.9093 6.84157 22.7817 8.64887 23 10.5879L15.388 3ZM22.0425 18.214V21.0809C22.0436 21.3471 21.989 21.6105 21.8821 21.8544C21.7753 22.0983 21.6186 22.3172 21.4221 22.4971C21.2256 22.677 20.9937 22.814 20.7411 22.8993C20.4885 22.9845 20.2208 23.0162 19.9552 22.9922C17.0089 22.6727 14.1787 21.6678 11.6921 20.0584C9.37869 18.5911 7.4173 16.6335 5.94724 14.3245C4.32908 11.8314 3.32206 8.99289 3.00777 6.03897C2.98384 5.7747 3.01531 5.50836 3.10017 5.25689C3.18503 5.00543 3.32141 4.77435 3.50065 4.57838C3.67989 4.3824 3.89804 4.22582 4.14123 4.11861C4.38442 4.0114 4.64731 3.9559 4.91316 3.95565H7.78561C8.25028 3.95109 8.70076 4.11532 9.05309 4.41774C9.40541 4.72016 9.63554 5.14013 9.70057 5.59937C9.82181 6.51686 10.0467 7.41772 10.3708 8.28476C10.4996 8.62681 10.5275 8.99855 10.4511 9.35593C10.3748 9.71331 10.1974 10.0414 9.93994 10.3012L8.72394 11.5149C10.087 13.9074 12.0717 15.8883 14.4688 17.2488L15.6848 16.0351C15.9452 15.7782 16.2738 15.6011 16.6319 15.5249C16.99 15.4486 17.3624 15.4765 17.7051 15.6051C18.5738 15.9286 19.4764 16.153 20.3956 16.274C20.8608 16.3395 21.2855 16.5733 21.5892 16.931C21.8928 17.2887 22.0542 17.7453 22.0425 18.214Z" stroke="#F4DEA2" stroke-width="2" stroke-linecap="round" stroke-linejoin="round"/>
</g>
<defs>
<filter id="filter0_d" x="0" y="-3.05176e-05" width="26" height="26" filterUnits="userSpaceOnUse" color-interpolation-filters="sRGB">
<feFlood flood-opacity="0" result="BackgroundImageFix"/>
<feColorMatrix in="SourceAlpha" type="matrix" values="0 0 0 0 0 0 0 0 0 0 0 0 0 0 0 0 0 0 127 0"/>
<feOffset/>
<feGaussianBlur stdDeviation="1"/>
<feColorMatrix type="matrix" values="0 0 0 0 0.956863 0 0 0 0 0.870588 0 0 0 0 0.635294 0 0 0 1 0"/>
<feBlend mode="normal" in2="BackgroundImageFix" result="effect1_dropShadow"/>
<feBlend mode="normal" in="SourceGraphic" in2="effect1_dropShadow" result="shape"/>
</filter>
</defs>
</svg>
